<mxfile host="app.diagrams.net" agent="Mozilla/5.0 (Windows NT 10.0; Win64; x64) AppleWebKit/537.36 (KHTML, like Gecko) Chrome/139.0.0.0 Safari/537.36" version="28.2.3">
  <diagram name="Trang-1" id="Ert_cIUiCiJxBCofz7H1">
    <mxGraphModel dx="827" dy="475" grid="1" gridSize="10" guides="1" tooltips="1" connect="1" arrows="1" fold="1" page="1" pageScale="1" pageWidth="827" pageHeight="1169" math="0" shadow="0">
      <root>
        <mxCell id="0" />
        <mxCell id="1" parent="0" />
        <mxCell id="Z5ioXaqWMZJnmxduQ3c0-3" value="" style="edgeStyle=orthogonalEdgeStyle;rounded=0;orthogonalLoop=1;jettySize=auto;html=1;" edge="1" parent="1" source="Z5ioXaqWMZJnmxduQ3c0-1" target="Z5ioXaqWMZJnmxduQ3c0-2">
          <mxGeometry relative="1" as="geometry" />
        </mxCell>
        <mxCell id="Z5ioXaqWMZJnmxduQ3c0-1" value="Bắt đầu" style="ellipse;whiteSpace=wrap;html=1;fillColor=#d5e8d4;strokeColor=#82b366;" vertex="1" parent="1">
          <mxGeometry x="50" y="10" width="90" height="50" as="geometry" />
        </mxCell>
        <mxCell id="Z5ioXaqWMZJnmxduQ3c0-7" value="" style="edgeStyle=orthogonalEdgeStyle;rounded=0;orthogonalLoop=1;jettySize=auto;html=1;" edge="1" parent="1" source="Z5ioXaqWMZJnmxduQ3c0-2" target="Z5ioXaqWMZJnmxduQ3c0-5">
          <mxGeometry relative="1" as="geometry" />
        </mxCell>
        <mxCell id="Z5ioXaqWMZJnmxduQ3c0-2" value="Khách hàng đưa thẻ" style="shape=parallelogram;perimeter=parallelogramPerimeter;whiteSpace=wrap;html=1;fixedSize=1;fillColor=#f5f5f5;fontColor=#333333;strokeColor=#666666;" vertex="1" parent="1">
          <mxGeometry x="5" y="100" width="180" height="60" as="geometry" />
        </mxCell>
        <mxCell id="Z5ioXaqWMZJnmxduQ3c0-4" value="Input" style="rounded=1;whiteSpace=wrap;html=1;fillColor=#e3c800;fontColor=#FF0000;strokeColor=#B09500;" vertex="1" parent="1">
          <mxGeometry x="100" y="70" width="60" height="20" as="geometry" />
        </mxCell>
        <mxCell id="Z5ioXaqWMZJnmxduQ3c0-8" value="" style="edgeStyle=orthogonalEdgeStyle;rounded=0;orthogonalLoop=1;jettySize=auto;html=1;" edge="1" parent="1" source="Z5ioXaqWMZJnmxduQ3c0-5">
          <mxGeometry relative="1" as="geometry">
            <mxPoint x="95" y="290" as="targetPoint" />
          </mxGeometry>
        </mxCell>
        <mxCell id="Z5ioXaqWMZJnmxduQ3c0-11" value="" style="edgeStyle=orthogonalEdgeStyle;rounded=0;orthogonalLoop=1;jettySize=auto;html=1;" edge="1" parent="1" source="Z5ioXaqWMZJnmxduQ3c0-5" target="Z5ioXaqWMZJnmxduQ3c0-10">
          <mxGeometry relative="1" as="geometry" />
        </mxCell>
        <mxCell id="Z5ioXaqWMZJnmxduQ3c0-5" value="Nhập mã pin" style="shape=parallelogram;perimeter=parallelogramPerimeter;whiteSpace=wrap;html=1;fixedSize=1;fillColor=#d5e8d4;strokeColor=#82b366;" vertex="1" parent="1">
          <mxGeometry x="27.5" y="190" width="132.5" height="50" as="geometry" />
        </mxCell>
        <mxCell id="Z5ioXaqWMZJnmxduQ3c0-37" value="" style="edgeStyle=orthogonalEdgeStyle;rounded=0;orthogonalLoop=1;jettySize=auto;html=1;" edge="1" parent="1" source="Z5ioXaqWMZJnmxduQ3c0-10" target="Z5ioXaqWMZJnmxduQ3c0-34">
          <mxGeometry relative="1" as="geometry" />
        </mxCell>
        <mxCell id="Z5ioXaqWMZJnmxduQ3c0-10" value="Nhập số tiền cần rút" style="rounded=0;whiteSpace=wrap;html=1;fillColor=#d5e8d4;strokeColor=#82b366;" vertex="1" parent="1">
          <mxGeometry x="33.75" y="270" width="120" height="30" as="geometry" />
        </mxCell>
        <mxCell id="Z5ioXaqWMZJnmxduQ3c0-16" value="Processing" style="rounded=1;whiteSpace=wrap;html=1;fillColor=#e3c800;fontColor=light-dark(#ec0909, #ededed);strokeColor=#B09500;" vertex="1" parent="1">
          <mxGeometry x="100" y="310" width="66" height="20" as="geometry" />
        </mxCell>
        <mxCell id="Z5ioXaqWMZJnmxduQ3c0-17" value="Máy ATM gửi yêu cầu đến hệ thống ngân hàng" style="rounded=0;whiteSpace=wrap;html=1;fillColor=#d5e8d4;strokeColor=#82b366;" vertex="1" parent="1">
          <mxGeometry x="20" y="440" width="160" height="30" as="geometry" />
        </mxCell>
        <mxCell id="Z5ioXaqWMZJnmxduQ3c0-18" value="Xác thực thông tin thẻ + mã PIN" style="rounded=0;whiteSpace=wrap;html=1;fillColor=#d5e8d4;strokeColor=#82b366;" vertex="1" parent="1">
          <mxGeometry x="10" y="500" width="180" height="40" as="geometry" />
        </mxCell>
        <mxCell id="Z5ioXaqWMZJnmxduQ3c0-19" value="Kiểm tra số dư tài khoản" style="rounded=0;whiteSpace=wrap;html=1;fillColor=#d5e8d4;strokeColor=#82b366;" vertex="1" parent="1">
          <mxGeometry x="20" y="570" width="160" height="30" as="geometry" />
        </mxCell>
        <mxCell id="Z5ioXaqWMZJnmxduQ3c0-23" value="" style="edgeStyle=orthogonalEdgeStyle;rounded=0;orthogonalLoop=1;jettySize=auto;html=1;" edge="1" parent="1" source="Z5ioXaqWMZJnmxduQ3c0-20" target="Z5ioXaqWMZJnmxduQ3c0-22">
          <mxGeometry relative="1" as="geometry" />
        </mxCell>
        <mxCell id="Z5ioXaqWMZJnmxduQ3c0-24" value="" style="edgeStyle=orthogonalEdgeStyle;rounded=0;orthogonalLoop=1;jettySize=auto;html=1;" edge="1" parent="1" source="Z5ioXaqWMZJnmxduQ3c0-20" target="Z5ioXaqWMZJnmxduQ3c0-21">
          <mxGeometry relative="1" as="geometry" />
        </mxCell>
        <mxCell id="Z5ioXaqWMZJnmxduQ3c0-20" value="So sánh số tiền yêu cầu rút với số dư khả dụng" style="rhombus;whiteSpace=wrap;html=1;fontSize=9;fillColor=#fff2cc;strokeColor=#d6b656;" vertex="1" parent="1">
          <mxGeometry x="40" y="620" width="120" height="90" as="geometry" />
        </mxCell>
        <mxCell id="Z5ioXaqWMZJnmxduQ3c0-53" style="edgeStyle=orthogonalEdgeStyle;rounded=0;orthogonalLoop=1;jettySize=auto;html=1;" edge="1" parent="1" source="Z5ioXaqWMZJnmxduQ3c0-21" target="Z5ioXaqWMZJnmxduQ3c0-49">
          <mxGeometry relative="1" as="geometry" />
        </mxCell>
        <mxCell id="Z5ioXaqWMZJnmxduQ3c0-21" value="Hợp lệ" style="rounded=0;whiteSpace=wrap;html=1;fillColor=#d5e8d4;strokeColor=#82b366;" vertex="1" parent="1">
          <mxGeometry x="60" y="750" width="80" height="30" as="geometry" />
        </mxCell>
        <mxCell id="Z5ioXaqWMZJnmxduQ3c0-22" value="Không hợp lệ" style="rounded=0;whiteSpace=wrap;html=1;fillColor=#f8cecc;strokeColor=#b85450;" vertex="1" parent="1">
          <mxGeometry x="200" y="655" width="110" height="20" as="geometry" />
        </mxCell>
        <mxCell id="Z5ioXaqWMZJnmxduQ3c0-25" value="" style="endArrow=classic;html=1;rounded=0;exitX=0.5;exitY=0;exitDx=0;exitDy=0;entryX=1;entryY=0.5;entryDx=0;entryDy=0;" edge="1" parent="1" source="Z5ioXaqWMZJnmxduQ3c0-22" target="Z5ioXaqWMZJnmxduQ3c0-19">
          <mxGeometry width="50" height="50" relative="1" as="geometry">
            <mxPoint x="250" y="480" as="sourcePoint" />
            <mxPoint x="300" y="430" as="targetPoint" />
            <Array as="points">
              <mxPoint x="255" y="585" />
            </Array>
          </mxGeometry>
        </mxCell>
        <mxCell id="Z5ioXaqWMZJnmxduQ3c0-26" value="" style="endArrow=classic;html=1;rounded=0;exitX=0.5;exitY=0;exitDx=0;exitDy=0;entryX=1;entryY=0.5;entryDx=0;entryDy=0;" edge="1" parent="1" source="Z5ioXaqWMZJnmxduQ3c0-22" target="Z5ioXaqWMZJnmxduQ3c0-5">
          <mxGeometry width="50" height="50" relative="1" as="geometry">
            <mxPoint x="250" y="480" as="sourcePoint" />
            <mxPoint x="260" y="220" as="targetPoint" />
            <Array as="points">
              <mxPoint x="260" y="215" />
            </Array>
          </mxGeometry>
        </mxCell>
        <mxCell id="Z5ioXaqWMZJnmxduQ3c0-29" value="" style="endArrow=classic;html=1;rounded=0;exitX=0.5;exitY=1;exitDx=0;exitDy=0;" edge="1" parent="1" source="Z5ioXaqWMZJnmxduQ3c0-18" target="Z5ioXaqWMZJnmxduQ3c0-19">
          <mxGeometry width="50" height="50" relative="1" as="geometry">
            <mxPoint x="170" y="490" as="sourcePoint" />
            <mxPoint x="220" y="440" as="targetPoint" />
          </mxGeometry>
        </mxCell>
        <mxCell id="Z5ioXaqWMZJnmxduQ3c0-30" value="" style="endArrow=classic;html=1;rounded=0;exitX=0.5;exitY=1;exitDx=0;exitDy=0;entryX=0.5;entryY=0;entryDx=0;entryDy=0;" edge="1" parent="1" source="Z5ioXaqWMZJnmxduQ3c0-19" target="Z5ioXaqWMZJnmxduQ3c0-20">
          <mxGeometry width="50" height="50" relative="1" as="geometry">
            <mxPoint x="170" y="490" as="sourcePoint" />
            <mxPoint x="220" y="440" as="targetPoint" />
          </mxGeometry>
        </mxCell>
        <mxCell id="Z5ioXaqWMZJnmxduQ3c0-32" value="&lt;span&gt;&lt;font style=&quot;color: rgb(255, 0, 0);&quot;&gt;Output&lt;/font&gt;&lt;/span&gt;" style="rounded=1;whiteSpace=wrap;html=1;fillColor=#e3c800;fontColor=#000000;strokeColor=#B09500;" vertex="1" parent="1">
          <mxGeometry x="110" y="790" width="80" height="30" as="geometry" />
        </mxCell>
        <mxCell id="Z5ioXaqWMZJnmxduQ3c0-34" value="Hệ thống bắt đầu xử lí" style="rhombus;whiteSpace=wrap;html=1;fillColor=#fff2cc;strokeColor=#d6b656;" vertex="1" parent="1">
          <mxGeometry x="50.63" y="330" width="86.25" height="80" as="geometry" />
        </mxCell>
        <mxCell id="Z5ioXaqWMZJnmxduQ3c0-40" value="" style="endArrow=classic;html=1;rounded=0;exitX=0.5;exitY=1;exitDx=0;exitDy=0;entryX=0.463;entryY=0.1;entryDx=0;entryDy=0;entryPerimeter=0;" edge="1" parent="1" source="Z5ioXaqWMZJnmxduQ3c0-34" target="Z5ioXaqWMZJnmxduQ3c0-17">
          <mxGeometry width="50" height="50" relative="1" as="geometry">
            <mxPoint x="-60" y="410" as="sourcePoint" />
            <mxPoint x="-10" y="360" as="targetPoint" />
          </mxGeometry>
        </mxCell>
        <mxCell id="Z5ioXaqWMZJnmxduQ3c0-41" value="" style="endArrow=classic;html=1;rounded=0;exitX=0.5;exitY=1;exitDx=0;exitDy=0;entryX=0.5;entryY=0;entryDx=0;entryDy=0;" edge="1" parent="1" source="Z5ioXaqWMZJnmxduQ3c0-17" target="Z5ioXaqWMZJnmxduQ3c0-18">
          <mxGeometry width="50" height="50" relative="1" as="geometry">
            <mxPoint x="-60" y="410" as="sourcePoint" />
            <mxPoint x="-10" y="360" as="targetPoint" />
          </mxGeometry>
        </mxCell>
        <mxCell id="Z5ioXaqWMZJnmxduQ3c0-42" value="Thành công" style="shape=parallelogram;perimeter=parallelogramPerimeter;whiteSpace=wrap;html=1;fixedSize=1;fillColor=#dae8fc;strokeColor=#6c8ebf;" vertex="1" parent="1">
          <mxGeometry x="36.25" y="920" width="127.5" height="30" as="geometry" />
        </mxCell>
        <mxCell id="Z5ioXaqWMZJnmxduQ3c0-47" value="" style="edgeStyle=orthogonalEdgeStyle;rounded=0;orthogonalLoop=1;jettySize=auto;html=1;" edge="1" parent="1" source="Z5ioXaqWMZJnmxduQ3c0-43" target="Z5ioXaqWMZJnmxduQ3c0-44">
          <mxGeometry relative="1" as="geometry" />
        </mxCell>
        <mxCell id="Z5ioXaqWMZJnmxduQ3c0-43" value="&amp;nbsp;Máy &lt;span style=&quot;&quot; data-end=&quot;762&quot; data-start=&quot;746&quot;&gt;nhả tiền mặt&lt;/span&gt;, in &lt;span style=&quot;&quot; data-end=&quot;789&quot; data-start=&quot;767&quot;&gt;biên lai giao dịch&lt;/span&gt;, và cập nhật số dư tài khoản" style="rounded=0;whiteSpace=wrap;html=1;fillColor=#dae8fc;strokeColor=#6c8ebf;" vertex="1" parent="1">
          <mxGeometry x="8" y="970" width="205" height="60" as="geometry" />
        </mxCell>
        <mxCell id="Z5ioXaqWMZJnmxduQ3c0-44" value="Kết thúc" style="ellipse;whiteSpace=wrap;html=1;fillColor=#d5e8d4;strokeColor=#82b366;" vertex="1" parent="1">
          <mxGeometry x="70.5" y="1060" width="80" height="30" as="geometry" />
        </mxCell>
        <mxCell id="Z5ioXaqWMZJnmxduQ3c0-56" value="" style="edgeStyle=orthogonalEdgeStyle;rounded=0;orthogonalLoop=1;jettySize=auto;html=1;" edge="1" parent="1" source="Z5ioXaqWMZJnmxduQ3c0-48" target="Z5ioXaqWMZJnmxduQ3c0-55">
          <mxGeometry relative="1" as="geometry" />
        </mxCell>
        <mxCell id="Z5ioXaqWMZJnmxduQ3c0-48" value="Không thành công" style="shape=parallelogram;perimeter=parallelogramPerimeter;whiteSpace=wrap;html=1;fixedSize=1;fillColor=#f8cecc;strokeColor=#b85450;" vertex="1" parent="1">
          <mxGeometry x="322.5" y="835" width="135" height="40" as="geometry" />
        </mxCell>
        <mxCell id="Z5ioXaqWMZJnmxduQ3c0-52" style="edgeStyle=orthogonalEdgeStyle;rounded=0;orthogonalLoop=1;jettySize=auto;html=1;entryX=0.5;entryY=0;entryDx=0;entryDy=0;" edge="1" parent="1" source="Z5ioXaqWMZJnmxduQ3c0-49" target="Z5ioXaqWMZJnmxduQ3c0-42">
          <mxGeometry relative="1" as="geometry" />
        </mxCell>
        <mxCell id="Z5ioXaqWMZJnmxduQ3c0-54" value="" style="edgeStyle=orthogonalEdgeStyle;rounded=0;orthogonalLoop=1;jettySize=auto;html=1;" edge="1" parent="1" source="Z5ioXaqWMZJnmxduQ3c0-49" target="Z5ioXaqWMZJnmxduQ3c0-48">
          <mxGeometry relative="1" as="geometry">
            <Array as="points">
              <mxPoint x="180" y="860" />
              <mxPoint x="180" y="860" />
            </Array>
          </mxGeometry>
        </mxCell>
        <mxCell id="Z5ioXaqWMZJnmxduQ3c0-49" value="Hệ thống trả kết quả" style="rhombus;whiteSpace=wrap;html=1;fillColor=#ffe6cc;strokeColor=#d79b00;" vertex="1" parent="1">
          <mxGeometry x="45" y="820" width="110" height="70" as="geometry" />
        </mxCell>
        <mxCell id="Z5ioXaqWMZJnmxduQ3c0-50" style="edgeStyle=orthogonalEdgeStyle;rounded=0;orthogonalLoop=1;jettySize=auto;html=1;entryX=0.449;entryY=0.067;entryDx=0;entryDy=0;entryPerimeter=0;" edge="1" parent="1" source="Z5ioXaqWMZJnmxduQ3c0-42" target="Z5ioXaqWMZJnmxduQ3c0-43">
          <mxGeometry relative="1" as="geometry" />
        </mxCell>
        <mxCell id="Z5ioXaqWMZJnmxduQ3c0-55" value="&amp;nbsp;Hiển thị &lt;span style=&quot;&quot; data-end=&quot;867&quot; data-start=&quot;850&quot;&gt;thông báo lỗi&lt;/span&gt; trên màn hình (VD: “Sai mã PIN”, “Số dư không đủ”, …)" style="rounded=0;whiteSpace=wrap;html=1;fillColor=#dae8fc;strokeColor=#6c8ebf;" vertex="1" parent="1">
          <mxGeometry x="250" y="975" width="280" height="50" as="geometry" />
        </mxCell>
      </root>
    </mxGraphModel>
  </diagram>
</mxfile>
